<svg xmlns="http://www.w3.org/2000/svg" viewBox="0 0 80 80"><path d="M12 0h56c6.65 0 12 5.35 12 12v56c0 6.65-5.35 12-12 12H12C5.35 80 0 74.65 0 68V12C0 5.35 5.35 0 12 0z" fill="#37abc8"/><path d="M12.73 7.91h21.04a4.4 4.4 0 0 1 4.4 4.42v6.3a4.4 4.4 0 0 1-4.4 4.42H12.73a4.4 4.4 0 0 1-4.41-4.41v-6.31a4.4 4.4 0 0 1 4.4-4.42zM12.73 27.78h21.04a4.4 4.4 0 0 1 4.4 4.42v6.3a4.4 4.4 0 0 1-4.4 4.42H12.73a4.4 4.4 0 0 1-4.41-4.41V32.2a4.4 4.4 0 0 1 4.4-4.42zM41.98 52.1h21.04a4.4 4.4 0 0 1 4.41 4.4v6.32a4.4 4.4 0 0 1-4.41 4.41H41.98a4.4 4.4 0 0 1-4.41-4.41v-6.31a4.4 4.4 0 0 1 4.41-4.41z" fill="#fff"/></svg>