<?xml version="1.0" encoding="UTF-8" standalone="no"?>
<svg
   xmlns="http://www.w3.org/2000/svg"
   id="svg819"
   version="1.1"
   viewBox="0 0 80 80">
  <path
     fill="#37abc8"
     style="fill:#37abc8;"
     id="path815"
     d="M12 0h56c6.65 0 12 5.35 12 12v56c0 6.65-5.35 12-12 12H12C5.35 80 0 74.65 0 68V12C0 5.35 5.35 0 12 0z" />
  <path
     style="fill:#ffffff"
     id="path817"
     d="m 15.290911,10.470911 h 21.04 c 2.437885,-2.5e-5 4.411081,1.98214 4.4,4.42 v 6.3 c 0.01108,2.43786 -1.962115,4.420025 -4.4,4.42 h -21.04 c -2.43787,0.0055 -4.415547,-1.97213 -4.41,-4.41 v -6.31 c -0.01108,-2.43786 1.962115,-4.420025 4.4,-4.42 z m 0,19.87 h 21.04 c 2.437885,-2.5e-5 4.411081,1.98214 4.4,4.42 v 6.3 c 0.01108,2.43786 -1.962115,4.420025 -4.4,4.42 h -21.04 c -2.43787,0.0055 -4.415547,-1.97213 -4.41,-4.41 v -6.31 c -0.01108,-2.43786 1.962115,-4.420025 4.4,-4.42 z M 41.98,52.1 h 21.04 c 2.433957,-0.0055 4.410006,1.966036 4.41,4.4 v 6.32 c 0.0055,2.43787 -1.97213,4.415547 -4.41,4.41 H 41.98 c -2.43787,0.0055 -4.415547,-1.97213 -4.41,-4.41 v -6.31 c -0.0055,-2.43787 1.97213,-4.415547 4.41,-4.41 z" />
</svg>
