<?xml version="1.0" encoding="UTF-8" standalone="no"?>
<svg
   xmlns:dc="http://purl.org/dc/elements/1.1/"
   xmlns:cc="http://creativecommons.org/ns#"
   xmlns:rdf="http://www.w3.org/1999/02/22-rdf-syntax-ns#"
   xmlns:svg="http://www.w3.org/2000/svg"
   xmlns="http://www.w3.org/2000/svg"
   xmlns:sodipodi="http://sodipodi.sourceforge.net/DTD/sodipodi-0.dtd"
   xmlns:inkscape="http://www.inkscape.org/namespaces/inkscape"
   viewBox="0 0 80 80"
   version="1.1"
   id="svg819"
   sodipodi:docname="error-logo.svg"
   inkscape:version="0.92.4 5da689c313, 2019-01-14"
   inkscape:export-filename="/home/nikku/camunda/projects/bpmn-io/.other/wuffle/src/error.png"
   inkscape:export-xdpi="153.60001"
   inkscape:export-ydpi="153.60001">
  <metadata
     id="metadata825">
    <rdf:RDF>
      <cc:Work
         rdf:about="">
        <dc:format>image/svg+xml</dc:format>
        <dc:type
           rdf:resource="http://purl.org/dc/dcmitype/StillImage" />
        <dc:title></dc:title>
      </cc:Work>
    </rdf:RDF>
  </metadata>
  <defs
     id="defs823" />
  <sodipodi:namedview
     pagecolor="#ffffff"
     bordercolor="#666666"
     borderopacity="1"
     objecttolerance="10"
     gridtolerance="10"
     guidetolerance="10"
     inkscape:pageopacity="0"
     inkscape:pageshadow="2"
     inkscape:window-width="2552"
     inkscape:window-height="1379"
     id="namedview821"
     showgrid="false"
     inkscape:zoom="14.2625"
     inkscape:cx="39.929886"
     inkscape:cy="43.856266"
     inkscape:window-x="0"
     inkscape:window-y="57"
     inkscape:window-maximized="0"
     inkscape:current-layer="svg819" />
  <path
     d="M12 0h56c6.65 0 12 5.35 12 12v56c0 6.65-5.35 12-12 12H12C5.35 80 0 74.65 0 68V12C0 5.35 5.35 0 12 0z"
     fill="#37abc8"
     id="path815"
     style="fill:#d35f5f;fill-opacity:1" />
  <path
     style="fill:#ffffff"
     d="m 29.658857,37.832874 19.629342,7.574333 c 2.274441,0.877608 3.401768,3.43722 2.51381,5.707641 l -2.26798,5.877609 c -0.867286,2.278398 -3.421757,3.417322 -5.696182,2.539668 L 24.208505,51.957792 c -2.2764,-0.872495 -3.409539,-3.429489 -2.52674,-5.701911 l 2.27158,-5.886935 c 0.867285,-2.278402 3.421757,-3.417325 5.696182,-2.539671 z"
     id="path825"
     inkscape:connector-curvature="0" />
  <path
     style="fill:#ffffff"
     d="M 11.722715,66.411021 29.94389,55.89102 c 2.111257,-1.218963 4.811178,-0.488956 6.020511,1.627834 l 3.15,5.455959 c 1.228527,2.105709 0.510772,4.808911 -1.600511,6.027832 l -18.221174,10.52 c -2.108508,1.223699 -4.810042,0.499859 -6.024172,-1.614172 l -3.155,-5.46462 C 8.8850195,70.338145 9.6027726,67.634942 11.714055,66.416021 Z"
     id="path823"
     inkscape:connector-curvature="0" />
  <path
     style="fill:#ffffff"
     d="m 45.768819,59.834819 20.32308,5.445553 c 2.352445,0.624641 3.750891,3.040438 3.120929,5.391465 l -1.635737,6.104652 c -0.625654,2.356225 -3.047758,3.754666 -5.401124,3.11834 l -20.32308,-5.445552 c -2.356225,-0.625655 -3.754666,-3.047758 -3.118342,-5.401125 l 1.633149,-6.094992 c 0.625655,-2.356225 3.047759,-3.754666 5.401125,-3.118341 z"
     id="path817"
     inkscape:connector-curvature="0" />
</svg>
